<svg id="Layer_1" data-name="Layer 1" xmlns="http://www.w3.org/2000/svg" xmlns:xlink="http://www.w3.org/1999/xlink" viewBox="0 0 5603.65 2000"><defs><style>.cls-1{fill:none;}.cls-2{clip-path:url(#clip-path);}.cls-3{clip-path:url(#clip-path-2);}.cls-4{fill:url(#linear-gradient);}.cls-5{clip-path:url(#clip-path-3);}.cls-6{fill:url(#linear-gradient-2);}.cls-7{clip-path:url(#clip-path-4);}.cls-8{fill:url(#linear-gradient-3);}.cls-9{clip-path:url(#clip-path-5);}.cls-10{fill:url(#linear-gradient-4);}.cls-11{clip-path:url(#clip-path-6);}.cls-12{fill:url(#linear-gradient-5);}.cls-13{clip-path:url(#clip-path-7);}.cls-14{fill:url(#linear-gradient-6);}.cls-15{clip-path:url(#clip-path-8);}.cls-16{fill:url(#linear-gradient-7);}</style><clipPath id="clip-path"><rect class="cls-1" width="5603.65" height="2000"/></clipPath><clipPath id="clip-path-2"><path class="cls-1" d="M1781.3,962.13a27.05,27.05,0,0,0,.12,38.31q8,8.32,21.89,8.34c9.51,0,16.83-2.75,22.08-8.26a27,27,0,0,0,7.81-19.22,26.52,26.52,0,0,0-7.92-19.25q-7.87-8.1-22-8.08t-22,8.16m357.44,0a27.05,27.05,0,0,0,.1,38.31q8,8.32,21.9,8.34,14.22,0,22-8.26a27,27,0,0,0,7.82-19.22,26.45,26.45,0,0,0-7.89-19.25q-7.92-8.1-22-8.08t-22,8.16m-420.29-1a26.65,26.65,0,0,0-7.89,19.13,27,27,0,0,0,7.89,19.25c5.29,5.52,12.61,8.23,22,8.23s16.72-2.71,22-8.15a27.48,27.48,0,0,0,0-38.54c-5.29-5.4-12.61-8.07-22-8.07s-16.68,2.71-22,8.15m357.43,0a26.53,26.53,0,0,0-7.89,19.13,26.92,26.92,0,0,0,7.89,19.25c5.25,5.52,12.61,8.23,22,8.23s16.72-2.71,22-8.15a27.48,27.48,0,0,0,0-38.54c-5.29-5.4-12.61-8.07-22-8.07s-16.72,2.71-22,8.15M508.26,750.62q25.59,29,27.14,48.09,4.8,27.82-6.18,51.53-22.17,34.18-55.65,37.1h-8.24q-42.25-2.75-61.32-42.6-9.11-27,.85-54.79,2.59-14.43,29.38-39.33h-70.6Q329,803.35,346.81,857.45q15.12,45,59.78,71.28,41.9,22,102.36,8.93,60.29-21.63,82.44-79.35,9.61-23.87,5.84-61.83-6.53-31.1-22.67-45.86Zm1795.88,0q-42.58,2.75-76.25,22.15l.52,66.13q21.28-17.17,37.78-29,12.38-7.56,23.35-9.8a66,66,0,0,1,23.71-.51,18.67,18.67,0,0,1,13.22,6q7.56,8.08,8.42,29.72l-.17,27.82q-.87,14.61-4.21,18.55t-14.86,6.53H2215.52v51.18l111.13.34q26.28-.51,47.91-18.9,17.7-21.45,20.27-56v-32a106.31,106.31,0,0,0-14.77-52.38q-18.37-25.08-58.39-29.89Zm-719,138.28q-15.12-5.83-15.78-35.23.67-24.57,14.91-38.12,17-13.24,33.33-10.3,11.32,3.06,11.85,18.19l.34,57-11.51-4.84-10.8-4.79a22.3,22.3,0,0,1-5.51,14.42q-4.5,4-12.08,4a34.91,34.91,0,0,1-4.75-.34m387.47-2.76c-3.88-1.25-6.64-3.13-8.23-5.66-2.07-3.1-2.56-7-1.54-11.7q1.19-6.87,9.28-16.65l-20.26-12.72,9.77-23.18q4.13-13.41,17.7-13.55c6.53.91,9.85,4.15,10,9.78v63.38c-.34,3.66-1.85,6.19-4.49,7.55a22.54,22.54,0,0,1-11.4,2.76h-.8M1574,754.4q-36.06,17.67-50.66,48.77-9.45,17.72-10,41.75.17,29.9,11.36,52.88,16.82,33.69,46,40.88a199.49,199.49,0,0,0,22,.68q23.89-.5,36.77-13.74v14.27h59.8v-.33h73.15a125,125,0,0,0,26.46-3.1,54.7,54.7,0,0,0,21.29-11.71v14.46h6.68v.35h26.27v-.35h38.66q31.08.67,41.22-25.25,5.82,6.67,10,11.32,14.61,14.28,43,14.28,37.08-.85,45.15-17.86v17.86h100.48q62.67-7,71.64-76.6l.15-111.84h-65.94l-.19,117.51q-1.53,18.35-33.48,19.06h-47.9l.34-13.93.15-77.27q-2.71-27.86-37.11-43.64-53.38-10.14-81.72,10.5-19.93,16-31.1,57.68l-16.84,58.58c-1.58,4.91-8.42,7.89-20.42,8.95l-16.35-.08-.15-25.52.15-111.84h-65.94l.86,113.88c-1.73,14.68-13.47,22.61-35.22,23.9l-53.21-.16V811.25q-3.3-37.61-32.85-54.62a124.15,124.15,0,0,0-44.71-8.67A115,115,0,0,0,1574,754.4m-452.89-75a27.33,27.33,0,0,0,.15,38.27q7.93,8.28,22,8.27c9.36,0,16.72-2.72,22-8.15a27.2,27.2,0,0,0,0-38.39c-5.24-5.51-12.6-8.27-22-8.27q-14.44,0-22.16,8.27m-675.7-.11a27.36,27.36,0,0,0-7.73,19.15,26.73,26.73,0,0,0,7.9,19.07q7.9,8.25,22,8.24t22-8.15a26.65,26.65,0,0,0,7.9-19.16,26.92,26.92,0,0,0-7.9-19.23q-7.91-8.24-22-8.25-14.43,0-22.16,8.33m292.49-.69a27.35,27.35,0,0,0-7.71,19.14,26.58,26.58,0,0,0,7.89,19.07c5.29,5.51,12.53,8.27,21.82,8.27s16.76-2.72,22.08-8.16a27.1,27.1,0,0,0,0-38.39q-8-8.26-22.08-8.27c-9.51,0-16.84,2.8-22,8.34m63.75-.41a27.35,27.35,0,0,0,.15,38.28q7.94,8.27,22,8.26t22-8.15a27.45,27.45,0,0,0,0-38.5q-7.93-8.16-22-8.16-14.43,0-22.15,8.27m758.8-4a27.42,27.42,0,0,0-7.74,19.14,26.62,26.62,0,0,0,7.93,19.06c5.24,5.51,12.53,8.27,21.78,8.27s16.76-2.72,22.08-8.2a26.48,26.48,0,0,0,8-19.13,26.88,26.88,0,0,0-8-19.25q-8-8.22-22.08-8.23c-9.48,0-16.84,2.79-22,8.34m64.59-.79a27.4,27.4,0,0,0,.15,38.32c5.28,5.5,12.6,8.22,22,8.22s16.72-2.72,22-8.15a27.42,27.42,0,0,0,0-38.47q-7.87-8.15-22-8.15-14.45,0-22.16,8.23m-809,197q-30.91-16.49-32.81-37.94c-1-8.27,3.1-15.86,12.35-22.84q12.23-8.94,26.45-3.81,7.94,4.13,8.43,19.44v46.2c-.45,10.08-5.4,15.89-14.76,17.52H797.34ZM619.73,649.12l-.18,290.44H822.4q56.67-7.38,66.32-63.72l-.19-64.78C888,800.79,885.78,792,882,784.79Q860,752,817.94,750.44a90.38,90.38,0,0,0-52.05,13.06q-21.28,12.22-34.35,37.63-15.79,36.92,1.55,66.81,9.79,16,18.91,21H684.32V649.12Zm723.44,0L1343,939.55h64.75V649.11Zm1391.22,0-.17,290.44H2799V649.11ZM1146.5,870.33q-30.91-16.49-32.8-37.94c-1-8.27,3.09-15.86,12.38-22.84,8.12-6,17-7.25,26.42-3.81,5.29,2.75,8.08,9.24,8.42,19.44v46.2c-.46,10.08-5.36,15.89-14.76,17.52h-18.38Zm110.27-221.74.18,219.17q1.18,17-13.93,20.94h-24.2v-.33l.16-77.8c-.57-10-2.72-18.57-6.53-25.78q-22-32.79-64.06-34.35a90.29,90.29,0,0,0-52,13.06Q1075,775.72,1062,801.13q-15.86,36.92,1.55,66.81,9.73,16,18.87,21h-68.89V751.64l-64.4.2.54,167.78q-.18,20.45-9.37,26.39t-30.16,8.15l-14.07-.86,30.38,54.27q36.46,0,60.47-17.36,20.61-19.77,23-38.62a78.18,78.18,0,0,0,2.79-12h140.12q24-.52,39.82-18.54v18.54h26.12v-.2h34q64.38-9.74,67.65-79.49l.19-211.28Zm1369.93-.34L2504.24,774.82v71.12q34.37-32.45,57.38-39.82,27.63-11.39,57.53.15,36.92,20.94,37.78,58.05-1,24.75-21.28,24l-10.5.68h-143.4V649.12h-64.59L2417,939.56h64.78v-.35h164.69q40.36-9.29,53.6-34.35,10.3-17.9,10.3-40,.69-49.83-33.82-84.71-36.75-31.25-75.42-31.07l100.34-100.82Zm142.22-78a76.29,76.29,0,0,0-10,1.72q-13.58,5.85-16,20.27a27.81,27.81,0,0,0,2.4,14.94h-12v22.16h66.13V608.92H2787.8c-4.57,0-7.78-.09-9.61-.26a28.82,28.82,0,0,1-6-1.29,10.3,10.3,0,0,1-3.95-7.55q0-5.84,6.36-7.73,5-1.73,12.53,0a46.36,46.36,0,0,1,8.25,3.26l2.23-9.27,2.4-10.65-8.58-2.92a82,82,0,0,0-19-2.32c-1.17,0-2.33,0-3.48.08"/></clipPath><linearGradient id="linear-gradient" y1="2000" x2="1" y2="2000" gradientTransform="translate(340.74 -4917734.93) scale(2459.26)" gradientUnits="userSpaceOnUse"><stop offset="0" stop-color="#59b247"/><stop offset="1" stop-color="#187c3e"/></linearGradient><clipPath id="clip-path-3"><path class="cls-1" d="M2921.55,1250.55c211.95,445.91,943.72,342.4,1141.39,615.1C3986.88,1466.21,3194.15,1510.51,2921.55,1250.55Zm1141.39,615.1c197.67-272.7,929.44-169.19,1141.39-615.1-272.6,260-1065.33,215.66-1141.39,615.1"/></clipPath><linearGradient id="linear-gradient-2" y1="2000" y2="2000" gradientTransform="translate(1298395.22 1186.17) rotate(90) scale(647.17)" xlink:href="#linear-gradient"/><clipPath id="clip-path-4"><path class="cls-1" d="M3357.51,1219c131,275.59,583.26,211.62,705.43,380.16-47-246.88-537-219.5-705.43-380.16Zm705.43,380.16c122.17-168.54,574.43-104.57,705.43-380.17-168.48,160.67-658.42,133.29-705.43,380.17"/></clipPath><linearGradient id="linear-gradient-3" y1="2000" y2="2000" gradientTransform="translate(804021.07 1179.24) rotate(90) scale(399.98)" xlink:href="#linear-gradient"/><clipPath id="clip-path-5"><path class="cls-1" d="M4062.91,1336.17c244.28-244.28,244.28-640.36,0-884.65-244.3,244.29-244.3,640.37,0,884.65M3935.51,261.74a127.4,127.4,0,1,0,127.4-127.4,127.4,127.4,0,0,0-127.4,127.4"/></clipPath><linearGradient id="linear-gradient-4" y1="2000" y2="2000" gradientTransform="translate(2533023.35 8.56) rotate(90) scale(1264.48)" xlink:href="#linear-gradient"/><clipPath id="clip-path-6"><path class="cls-1" d="M4062.91,1337.42c345.47,0,625.54-280.07,625.54-625.54-345.48,0-625.54,280.06-625.54,625.54m669.65-849.83a127.41,127.41,0,1,0,90.09-37.31,127.4,127.4,0,0,0-90.09,37.31"/></clipPath><linearGradient id="linear-gradient-5" y1="1999.96" y2="1999.96" gradientTransform="translate(671562.19 697.78) rotate(90) scale(333.53)" xlink:href="#linear-gradient"/><clipPath id="clip-path-7"><path class="cls-1" d="M4063,1337.42c0-345.48-280.06-625.54-625.54-625.54,0,345.47,280.07,625.54,625.54,625.54M3213.15,487.59a127.4,127.4,0,1,0,90.09-37.31,127.4,127.4,0,0,0-90.09,37.31"/></clipPath><linearGradient id="linear-gradient-6" y1="2000" y2="2000" gradientTransform="matrix(-333.53, 0, 0, 333.53, 3796.19, -666168.65)" xlink:href="#linear-gradient"/><clipPath id="clip-path-8"><path class="cls-1" d="M515.41,1210.81q26.69,30.26,28.3,50.14,5,29-6.45,53.73-23.1,35.64-58,38.68h-8.6q-44.06-2.86-63.93-44.41-9.49-28.11.89-57.13,2.68-15,30.63-41H364.62q-36.18,55-17.55,111.39,15.76,46.92,62.32,74.32,43.69,22.92,106.74,9.31,62.85-22.56,86-82.73,10-24.9,6.09-64.47-6.81-32.42-23.64-47.82Zm-65.54-74.41a28.48,28.48,0,0,0-8.06,20,27.81,27.81,0,0,0,8.24,19.87q8.24,8.61,22.92,8.6t22.92-8.5a27.79,27.79,0,0,0,8.24-20,28.1,28.1,0,0,0-8.24-20.06q-8.24-8.6-22.92-8.6-15,0-23.1,8.69m824.33-.72a28.48,28.48,0,0,0-8.06,20,27.88,27.88,0,0,0,8.23,19.88q8.24,8.6,22.75,8.6,14.69,0,23-8.51a27.64,27.64,0,0,0,8.33-20,27.94,27.94,0,0,0-8.33-20.06q-8.33-8.6-23-8.59-14.86,0-22.92,8.68m66.44-.45a28.55,28.55,0,0,0,.17,39.94q8.25,8.6,22.93,8.6t22.92-8.51a28.53,28.53,0,0,0,0-40.11q-8.23-8.51-22.92-8.51-15,0-23.1,8.59m-709-28.65-.18,301.22H699V1106.58Zm930.17-1.61-.18,302.83h67.51V1105Zm883.6,242.84q-2.86-7.35-.54-13.43a16.4,16.4,0,0,1,7-8.6,20.24,20.24,0,0,1,11.82-.71,16.26,16.26,0,0,1,8.59,6.26,17.3,17.3,0,0,1,1.26,13.61q-2.34,6.81-7.7,9.14h-14q-3.59-1.44-6.45-6.27m-536.53-38.51.35,28.66v19a164.63,164.63,0,0,1-5.37,28.84q-5.37,15.39-20.95,26.68-20.78,10.92-40.83,7-22.57-5.37-35.64-28.47-15.76-27.77-8.42-58a140.27,140.27,0,0,1,27-48.89l-73.25.17q-13.61,26.16-15.21,51.76-2.88,26.68,4.11,55.87a113.46,113.46,0,0,0,30.63,54.62q25.07,25.8,58.56,31,24.16,3.93,53-1.62,29.71-9.3,41-19.69l13.25-11.11a164.1,164.1,0,0,0,25.24-37.23l139.52.16v-.15l129.48.15v-.15l129.48.15v-.18h177.48l23.28-4.12q34.56-12.71,42.62-49.24a113.83,113.83,0,0,0-3.94-57.13,120.26,120.26,0,0,0-33-53.73q-27-28.11-78.08-34.74-49.44-1.62-91.52,12.89l.36,65.19q16.83-14.51,42.44-20.77,35.11-8.07,63,4.47Q2541.23,1291,2547,1336q.72,16.11-16.12,17.91h-11.64a58.41,58.41,0,0,0,.36-32.06q-10.56-32.6-42.62-39.4-33-5.91-58.56,12.36-21.85,18.27-18.09,53.55l.18,5.73-72.53.18v.32l-115.87-.14v.15l-129.48-.15v.15l-106-.13v0h-5l-.17-249.29-62-.18Zm-553.2,26.33q-32.23-17.19-34.21-39.58-1.6-12.88,12.9-23.82,12.7-9.3,27.58-3.93,8.23,4.29,8.77,20.23v48.18q-.72,15.76-15.4,18.26h-19.16Zm116-231.2.18,228.52q1.24,17.73-14.51,21.84h-26.33v-.35l.18-81.13q-.9-15.58-6.8-26.86-22.92-34.21-66.8-35.82a94.2,94.2,0,0,0-54.26,13.61q-22.22,12.72-35.82,39.22-16.48,38.51,1.61,69.67,10.21,16.65,19.7,21.84h-69.66v-.36l-148.63-.17v.15l-129.48-.15v.15l-112.47-.13V1211.89l-67.16.17.54,175q-.18,21.32-9.76,27.49T720.82,1423l-14.68-.9,31.7,56.59q37.95,0,63-18.09,21.5-20.6,24-40.29a84.12,84.12,0,0,0,2.91-12.52l132.66.16v-.15l129.48.15v-.15l129.47.15v-.18h142.92q25.07-.52,41.54-19.34v19.34h27.22v-.18h36.54q67.16-10.2,70.56-82.91l.18-220.28Zm1266.66,0v163.51l-59.81-147.39h-60.71l86,224.57H2733q-.18,7.89-12.89,9.67h-90.44l.71,52.66,99.76.35q42.08-3.21,59.09-34.74,10.76-14.32,10.75-46.2V1104.43Zm-2036.73-50-9.85,1.79-38.68-6.45H642.92l-14.86,3.58-5.91,2.87q-6.81,3.4-7.7,10.21v21.67l21.66-8.24,10.93-2.15,5.37.36,33.31,6.09,17-1.44,14.5-4.83q5.91-4.65,7-10.57v-19.88ZM2668,1030.65q-5.19.54-10.38,1.61-14.16,5.37-16.66,18.8a22.88,22.88,0,0,0,2.51,13.79h-12.54v20.6h68.95v-19h-12.18c-4.77,0-8.12-.09-10-.27a38.76,38.76,0,0,1-6.26-1.17q-3.95-3-4.12-7,0-5.37,6.63-7.16,5.18-1.62,13.07,0a47.76,47.76,0,0,1,8.59,3l2.33-8.6,2.51-9.85-9-2.86a94.35,94.35,0,0,0-19.39-2.07c-1.36,0-2.72,0-4.07.1"/></clipPath><linearGradient id="linear-gradient-7" y1="2000" y2="2000" gradientTransform="matrix(2459.26, 0, 0, -2459.26, 340.74, 4919774.85)" xlink:href="#linear-gradient"/></defs><title>Artboard 2</title><g class="cls-2"><g class="cls-3"><rect class="cls-4" x="334.9" y="570.19" width="2465.1" height="438.59"/></g><g class="cls-5"><rect class="cls-6" x="2921.55" y="1250.55" width="2282.78" height="615.1"/></g><g class="cls-7"><rect class="cls-8" x="3357.51" y="1219.02" width="1410.87" height="380.16"/></g><g class="cls-9"><rect class="cls-10" x="3818.61" y="134.34" width="488.58" height="1201.83"/></g><g class="cls-11"><rect class="cls-12" x="3881" y="262.15" width="1263.39" height="1263.39" transform="translate(689.69 3452.76) rotate(-45)"/></g><g class="cls-13"><rect class="cls-14" x="2981.49" y="262.16" width="1263.39" height="1263.39" transform="translate(426.23 2816.71) rotate(-45)"/></g><g class="cls-15"><rect class="cls-16" x="334.65" y="1030.55" width="2465.35" height="449.54"/></g></g></svg>