<svg id="Layer_1" data-name="Layer 1" xmlns="http://www.w3.org/2000/svg" xmlns:xlink="http://www.w3.org/1999/xlink" viewBox="0 0 2000 2000"><defs><style>.cls-1{fill:none;}.cls-2{clip-path:url(#clip-path);}.cls-3{clip-path:url(#clip-path-2);}.cls-4{fill:url(#linear-gradient);}.cls-5{clip-path:url(#clip-path-3);}.cls-6{fill:url(#linear-gradient-2);}.cls-7{clip-path:url(#clip-path-4);}.cls-8{fill:url(#linear-gradient-3);}.cls-9{clip-path:url(#clip-path-5);}.cls-10{fill:url(#linear-gradient-4);}.cls-11{clip-path:url(#clip-path-6);}.cls-12{fill:url(#linear-gradient-5);}.cls-13{clip-path:url(#clip-path-7);}.cls-14{fill:url(#linear-gradient-6);}.cls-15{clip-path:url(#clip-path-8);}.cls-16{fill:url(#linear-gradient-7);}</style><clipPath id="clip-path"><rect class="cls-1" width="2000" height="2000"/></clipPath><clipPath id="clip-path-2"><path class="cls-1" d="M1127.67,1537.67a17.09,17.09,0,0,0,.08,24.2c3.36,3.5,8,5.27,13.82,5.27,6,0,10.63-1.75,14-5.22a17.06,17.06,0,0,0,4.93-12.14,16.72,16.72,0,0,0-5-12.15q-5-5.12-13.87-5.11t-13.9,5.15m225.71,0a17.1,17.1,0,0,0,.07,24.2c3.36,3.5,8,5.27,13.83,5.27s10.63-1.75,13.92-5.22a17.06,17.06,0,0,0,4.93-12.14,16.69,16.69,0,0,0-5-12.15q-5-5.12-13.87-5.11c-5.94,0-10.56,1.72-13.9,5.15M1088,1537a16.82,16.82,0,0,0-5,12.08,17.07,17.07,0,0,0,5,12.16c3.33,3.48,8,5.2,13.87,5.2s10.56-1.72,13.9-5.15a17.36,17.36,0,0,0,0-24.34c-3.34-3.41-8-5.1-13.9-5.1s-10.54,1.72-13.87,5.15m225.7,0a16.77,16.77,0,0,0-5,12.08,17,17,0,0,0,5,12.16c3.32,3.48,8,5.2,13.88,5.2s10.56-1.72,13.89-5.15a17.33,17.33,0,0,0,0-24.34q-5-5.12-13.89-5.1c-5.91,0-10.56,1.72-13.88,5.15m-989.9-132.92q16.15,18.33,17.14,30.37,3,17.58-3.91,32.54-14,21.59-35.14,23.43h-5.21q-26.67-1.74-38.72-26.9a51.31,51.31,0,0,1,.54-34.6q1.63-9.1,18.55-24.84H232.47q-21.91,33.3-10.63,67.46,9.54,28.42,37.74,45,26.46,13.89,64.64,5.64,38.07-13.65,52.06-50.1,6.08-15.07,3.69-39-4.12-19.62-14.32-29Zm1134,0q-26.89,1.74-48.15,14l.33,41.76q13.44-10.84,23.86-18.33a46.39,46.39,0,0,1,14.74-6.18,41.8,41.8,0,0,1,15-.33,11.77,11.77,0,0,1,8.35,3.8q4.78,5.1,5.32,18.76l-.11,17.57q-.54,9.22-2.66,11.72t-9.38,4.12h-63.23v32.32l70.17.22q16.59-.33,30.26-11.94,11.17-13.54,12.8-35.35v-20.17a67.21,67.21,0,0,0-9.33-33.08q-11.6-15.84-36.87-18.88Zm-454,87.32q-9.54-3.67-10-22.24.43-15.51,9.42-24.08,10.77-8.35,21-6.5,7.15,1.94,7.49,11.49l.21,36-7.27-3-6.82-3a14.06,14.06,0,0,1-3.48,9.1,11.06,11.06,0,0,1-7.62,2.51,21.45,21.45,0,0,1-3-.22m244.68-1.74a9.11,9.11,0,0,1-5.19-3.58c-1.32-1.95-1.62-4.4-1-7.38s2.45-6.39,5.86-10.52l-12.8-8,6.17-14.63c1.75-5.65,5.46-8.49,11.18-8.56q6.19.85,6.3,6.17v40a5.51,5.51,0,0,1-2.84,4.77,14.22,14.22,0,0,1-7.2,1.75h-.5M996.76,1406.5q-22.77,11.16-32,30.8-6,11.19-6.3,26.36.1,18.88,7.18,33.4,10.62,21.27,29.05,25.81a127.27,127.27,0,0,0,13.88.43q15.09-.32,23.22-8.67v9h37.75v-.21h46.2a78.81,78.81,0,0,0,16.71-2,34.62,34.62,0,0,0,13.44-7.39v9.13h4.22v.21h16.59v-.21h24.41q19.62.42,26-16,3.67,4.21,6.29,7.15,9.22,9,27.12,9,23.43-.54,28.51-11.28v11.28h63.46q39.57-4.44,45.24-48.37l.09-70.62h-41.64l-.12,74.2q-1,11.59-21.14,12h-30.25l.21-8.8.1-48.79q-1.71-17.6-23.43-27.56-33.72-6.39-51.61,6.63-12.59,10.08-19.64,36.42l-10.63,37c-1,3.09-5.32,5-12.89,5.65l-10.32,0-.1-16.12.1-70.62h-41.65l.55,71.91q-1.65,13.9-22.24,15.09l-33.61-.1V1442.4q-2.07-23.75-20.74-34.49a78.38,78.38,0,0,0-28.23-5.48,72.74,72.74,0,0,0-23.83,4.07m-286-47.38a17.25,17.25,0,0,0,.09,24.16c3.34,3.49,8,5.23,13.9,5.23s10.56-1.72,13.87-5.15a17.17,17.17,0,0,0,0-24.24c-3.31-3.48-8-5.22-13.87-5.22q-9.12,0-14,5.22m-426.69-.07a17.28,17.28,0,0,0-4.88,12.09,16.86,16.86,0,0,0,5,12q5,5.21,13.88,5.21t13.88-5.16a16.8,16.8,0,0,0,5-12.09,17,17,0,0,0-5-12.14q-5-5.2-13.88-5.21-9.1,0-14,5.26m184.7-.44a17.32,17.32,0,0,0-4.87,12.09,16.77,16.77,0,0,0,5,12q5,5.22,13.77,5.22t13.95-5.15a17.12,17.12,0,0,0,0-24.24q-5-5.22-13.95-5.22t-13.89,5.26m40.26-.26a17.27,17.27,0,0,0,.09,24.17c3.34,3.48,8,5.22,13.9,5.22s10.53-1.71,13.87-5.15a17.32,17.32,0,0,0,0-24.31q-5-5.15-13.87-5.15-9.12,0-14,5.22m479.16-2.55a17.34,17.34,0,0,0-4.89,12.09,16.83,16.83,0,0,0,5,12c3.32,3.48,7.92,5.22,13.76,5.22s10.58-1.71,13.94-5.17a16.69,16.69,0,0,0,5.06-12.08,16.94,16.94,0,0,0-5.06-12.16q-5-5.19-13.94-5.2c-6,0-10.63,1.77-13.87,5.27m40.78-.5a17.29,17.29,0,0,0,.1,24.2q5,5.2,13.89,5.19t13.88-5.15a16.77,16.77,0,0,0,5-12.08,17,17,0,0,0-5-12.21q-5-5.14-13.88-5.15c-6.07,0-10.75,1.74-14,5.2M518.15,1479.71q-19.51-10.41-20.71-24c-.67-5.22,1.95-10,7.79-14.42a17,17,0,0,1,16.71-2.41c3.34,1.74,5.1,5.84,5.32,12.27v29.18c-.29,6.36-3.41,10-9.32,11.06H506.33ZM394.18,1340l-.12,183.4h128.1q35.79-4.65,41.87-40.24l-.11-40.9a40.31,40.31,0,0,0-4.13-16.59Q545.93,1405,519.34,1404a57.12,57.12,0,0,0-32.87,8.25Q473,1420,464.78,1436q-10,23.31,1,42.19,6.19,10.08,11.94,13.23H435V1340ZM851,1340l-.11,183.4h40.89V1340Zm878.51,0-.11,183.4h40.89V1340ZM726.82,1479.71q-19.53-10.41-20.72-24c-.64-5.22,2-10,7.82-14.42a16.92,16.92,0,0,1,16.69-2.41c3.33,1.74,5.1,5.84,5.31,12.27v29.18c-.29,6.36-3.38,10-9.32,11.06H715Zm69.62-140,.12,138.39q.75,10.73-8.79,13.23H772.49v-.21l.09-49.13a39.28,39.28,0,0,0-4.12-16.28Q754.59,1405,728,1404a57.06,57.06,0,0,0-32.85,8.25Q681.69,1420,673.47,1436q-10,23.31,1,42.19,6.15,10.08,11.91,13.23h-43.5v-86.67l-40.66.12.33,105.95q-.1,12.92-5.91,16.67t-19,5.14l-8.89-.54,19.19,34.27q23,0,38.18-11,13-12.48,14.54-24.39a49.29,49.29,0,0,0,1.76-7.6h88.48a33,33,0,0,0,25.15-11.7v11.7h16.5v-.12H794q40.65-6.15,42.72-50.2l.12-133.41Zm865.08-.22-77.33,79.93v44.91q21.7-20.49,36.23-25.15,17.46-7.19,36.33.09,23.31,13.23,23.86,36.66-.64,15.63-13.44,15.19l-6.63.43H1570V1340H1529.2l-.12,183.4H1570v-.21h104q25.5-5.87,33.85-21.7a49.64,49.64,0,0,0,6.51-25.26q.42-31.47-21.36-53.49-23.2-19.74-47.62-19.62l63.35-63.67Zm89.8-49.24a47.88,47.88,0,0,0-6.29,1.09,16.06,16.06,0,0,0-10.09,12.79,17.58,17.58,0,0,0,1.52,9.44h-7.59v14h41.76v-12.9h-7.38q-4.34,0-6.07-.17a18.83,18.83,0,0,1-3.8-.81,6.5,6.5,0,0,1-2.49-4.77c0-2.46,1.33-4.09,4-4.88a14.41,14.41,0,0,1,7.91,0,28.86,28.86,0,0,1,5.21,2.06l1.41-5.86,1.51-6.73-5.42-1.84a51.8,51.8,0,0,0-12-1.46c-.73,0-1.46,0-2.2,0"/></clipPath><linearGradient id="linear-gradient" x1="2018.7" y1="2000" x2="2019.7" y2="2000" gradientTransform="translate(-3134722.13 -3104472.47) scale(1552.95)" gradientUnits="userSpaceOnUse"><stop offset="0" stop-color="#59b247"/><stop offset="1" stop-color="#187c3e"/></linearGradient><clipPath id="clip-path-3"><path class="cls-1" d="M273.72,840.72c133.85,281.58,595.94,216.22,720.76,388.42C946.45,976.91,445.86,1004.88,273.72,840.72Zm720.76,388.42c124.82-172.2,586.91-106.84,720.75-388.42-172.14,164.16-672.72,136.19-720.75,388.42"/></clipPath><linearGradient id="linear-gradient-2" x1="2020" y1="2004.94" x2="2021" y2="2004.94" gradientTransform="translate(820346.57 -824705.34) rotate(90) scale(408.67)" xlink:href="#linear-gradient"/><clipPath id="clip-path-4"><path class="cls-1" d="M549,820.81c82.72,174,368.31,133.64,445.46,240.07C964.79,905,655.41,922.27,549,820.81Zm890.92,0C1333.55,922.27,1024.17,905,994.48,1060.88c77.14-106.43,362.73-66,445.46-240.07Z"/></clipPath><linearGradient id="linear-gradient-3" x1="2020" y1="2008" x2="2021" y2="2008" gradientTransform="translate(508164.11 -509405.43) rotate(90) scale(252.57)" xlink:href="#linear-gradient"/><clipPath id="clip-path-5"><path class="cls-1" d="M994.46,894.79c154.26-154.26,154.26-404.37,0-558.63-154.27,154.26-154.27,404.37,0,558.63M914,216.32a80.45,80.45,0,1,0,80.45-80.45A80.44,80.44,0,0,0,914,216.32"/></clipPath><linearGradient id="linear-gradient-4" x1="2020" y1="2002.53" x2="2021" y2="2002.53" gradientTransform="translate(1599977.35 -1612876.08) rotate(90) scale(798.48)" xlink:href="#linear-gradient"/><clipPath id="clip-path-6"><path class="cls-1" d="M994.46,895.57c218.15,0,395-176.85,395-395-218.16,0-395,176.85-395,395m422.86-536.63a80.45,80.45,0,1,0,56.89-23.56,80.45,80.45,0,0,0-56.89,23.56"/></clipPath><linearGradient id="linear-gradient-5" x1="2013.22" y1="2006.74" x2="2014.22" y2="2006.74" gradientTransform="translate(423928.62 -423522.16) rotate(90) scale(210.61)" xlink:href="#linear-gradient"/><clipPath id="clip-path-7"><path class="cls-1" d="M994.5,895.57c0-218.16-176.85-395-395-395,0,218.16,176.85,395,395,395M457.86,358.94a80.45,80.45,0,1,0,56.89-23.56,80.45,80.45,0,0,0-56.89,23.56"/></clipPath><linearGradient id="linear-gradient-6" x1="2026.78" y1="1993.22" x2="2027.78" y2="1993.22" gradientTransform="matrix(-210.61, 0, 0, 210.61, 427696.63, -419186.14)" xlink:href="#linear-gradient"/><clipPath id="clip-path-8"><path class="cls-1" d="M328.3,1694.71q16.86,19.11,17.87,31.66,3.16,18.33-4.07,33.93-14.6,22.5-36.64,24.43H300q-27.82-1.82-40.37-28a53.37,53.37,0,0,1,.57-36.07q1.69-9.51,19.33-25.9H233.08q-22.85,34.72-11.08,70.34,9.94,29.63,39.36,46.93,27.58,14.48,67.4,5.88,39.69-14.25,54.28-52.24,6.33-15.72,3.84-40.72-4.29-20.46-14.93-30.19Zm-41.39-47a18,18,0,0,0-5.09,12.61,17.58,17.58,0,0,0,5.21,12.55q5.19,5.43,14.47,5.43t14.48-5.37a17.56,17.56,0,0,0,5.2-12.61,17.76,17.76,0,0,0-5.2-12.66q-5.21-5.43-14.48-5.43-9.5,0-14.59,5.48m520.54-.45a18,18,0,0,0-5.09,12.61,17.6,17.6,0,0,0,5.21,12.55q5.19,5.43,14.36,5.43t14.53-5.37a17.42,17.42,0,0,0,5.26-12.61,17.64,17.64,0,0,0-5.26-12.67q-5.26-5.42-14.53-5.42t-14.48,5.48m42-.28a18,18,0,0,0,.11,25.22q5.21,5.41,14.47,5.42t14.48-5.37a18,18,0,0,0,0-25.33q-5.21-5.37-14.48-5.37-9.5,0-14.58,5.43m-447.71-18.1-.12,190.21h42.64V1628.89Zm587.37-1L989,1819.1h42.63V1627.88Zm558,153.34a11.45,11.45,0,0,1-.34-8.48,10.36,10.36,0,0,1,4.41-5.43,12.85,12.85,0,0,1,7.46-.45,10.23,10.23,0,0,1,5.43,4,10.9,10.9,0,0,1,.8,8.59,9.06,9.06,0,0,1-4.87,5.77h-8.82a8.76,8.76,0,0,1-4.07-4m-338.81-24.31.23,18.09v12a105,105,0,0,1-3.39,18.21q-3.39,9.72-13.24,16.85-13.11,6.89-25.78,4.41-14.25-3.39-22.5-18-10-17.54-5.32-36.64a88.6,88.6,0,0,1,17.08-30.88l-46.25.12q-8.6,16.5-9.62,32.68A103.65,103.65,0,0,0,1102,1809a71.74,71.74,0,0,0,19.34,34.49q15.84,16.29,37,19.57,15.27,2.48,33.47-1,18.78-5.88,25.9-12.44l8.37-7a103.57,103.57,0,0,0,15.94-23.52l88.1.11v-.1l81.76.1v-.1l81.76.1v-.12h112.07l14.7-2.6q21.83-8,26.92-31.09a71.93,71.93,0,0,0-2.49-36.08,75.86,75.86,0,0,0-20.81-33.92q-17.07-17.76-49.3-21.94-31.21-1-57.79,8.14l.22,41.16q10.63-9.15,26.81-13.12,22.15-5.09,39.8,2.83,23.76,12.9,27.37,41.28.45,10.17-10.18,11.31h-7.35a37,37,0,0,0,.23-20.25q-6.67-20.58-26.92-24.87-20.81-3.73-37,7.8-13.8,11.54-11.42,33.81l.12,3.62-45.81.11v.2l-73.16-.08v.1l-81.76-.1v.1l-67-.09h-3.17L1247.7,1628l-39.13-.11Zm-349.32,16.62q-20.35-10.86-21.6-25-1-8.14,8.14-15a17.68,17.68,0,0,1,17.41-2.49q5.21,2.71,5.55,12.78v30.42q-.46,10-9.73,11.53h-12.1Zm73.28-146,.11,144.3q.8,11.19-9.16,13.79H906.52v-.22l.11-51.23a41.38,41.38,0,0,0-4.3-17q-14.48-21.59-42.18-22.61a59.46,59.46,0,0,0-34.26,8.59q-14,8-22.62,24.77-10.41,24.32,1,44,6.44,10.52,12.44,13.79h-44v-.22l-93.86-.11v.1l-81.76-.1v.1l-71-.09v-90l-42.41.11L484,1806q-.11,13.46-6.16,17.36T458,1828.72l-9.27-.57,20,35.74q24,0,39.8-11.42,13.57-13,15.16-25.45a51.75,51.75,0,0,0,1.83-7.9l83.77.1v-.1l81.77.1v-.1l81.77.1v-.12h90.24a34.41,34.41,0,0,0,26.24-12.21v12.21h17.19V1819h23.07q42.4-6.43,44.55-52.36l.12-139.09Zm799.86,0v103.25l-37.77-93.08h-38.34l54.28,141.81h18.44q-.12,5-8.15,6.11h-57.1l.45,33.25,63,.22q26.57-2,37.32-21.93,6.78-9,6.78-29.18V1627.54ZM445.91,1596l-6.22,1.13-24.42-4.07h-6.45l-9.39,2.26-3.73,1.81a8.16,8.16,0,0,0-4.86,6.44v13.68l13.68-5.2,6.9-1.35,3.39.22,21,3.85,10.74-.91,9.16-3a11,11,0,0,0,4.41-6.67v-12.55Zm1241.7-15q-3.28.35-6.56,1-8.94,3.39-10.52,11.88a14.49,14.49,0,0,0,1.58,8.71h-7.91v13h43.54v-12h-7.69c-3,0-5.13,0-6.34-.17a24,24,0,0,1-4-.73,5.9,5.9,0,0,1-2.61-4.41q0-3.39,4.19-4.53a17,17,0,0,1,8.25,0,29.86,29.86,0,0,1,5.43,1.93l1.47-5.43,1.59-6.22-5.66-1.81a59.73,59.73,0,0,0-12.25-1.31c-.86,0-1.71,0-2.56.06"/></clipPath><linearGradient id="linear-gradient-7" x1="2018.7" y1="2000" x2="2019.7" y2="2000" gradientTransform="matrix(1552.95, 0, 0, -1552.95, -3134719.42, 3107620.94)" xlink:href="#linear-gradient"/></defs><title>Artboard 1</title><g class="cls-2"><g class="cls-3"><rect class="cls-4" x="214.32" y="1290.18" width="1556.64" height="276.96"/></g><g class="cls-5"><rect class="cls-6" x="273.72" y="840.72" width="1441.51" height="388.42"/></g><g class="cls-7"><rect class="cls-8" x="549.02" y="820.81" width="890.92" height="240.06"/></g><g class="cls-9"><rect class="cls-10" x="840.19" y="135.87" width="308.52" height="758.92"/></g><g class="cls-11"><rect class="cls-12" x="879.59" y="216.58" width="797.8" height="797.8" transform="translate(-60.75 1084.29) rotate(-45)"/></g><g class="cls-13"><rect class="cls-14" x="311.58" y="216.58" width="797.79" height="797.79" transform="translate(-227.11 682.65) rotate(-45)"/></g><g class="cls-15"><rect class="cls-16" x="214.16" y="1580.88" width="1556.79" height="283.87"/></g></g></svg>